<svg xmlns="http://www.w3.org/2000/svg"  viewBox="0 0 48 48" width="192px" height="192px" fill-rule="evenodd" clip-rule="evenodd" baseProfile="basic"><path fill-rule="evenodd" d="M7.998,23v2h32.004v-2H7.998z" clip-rule="evenodd"/><path fill-rule="evenodd" d="M16.286,43.92l-4.812-4.32	c-1.035-0.92-1.472-2.387-1.472-3.6v-5.68L9.345,29.4c-0.805-1.307-1.343-2.827-1.343-4.4c0-0.8,0.101-1.933,0.456-2.907	c0.168-0.453,0.437-0.987,0.848-1.387l0.696-0.48V14c0-6.12,6.288-11,13.997-11c7.708,0,14,4.88,14,11v6.227l0.693,0.48	c0.411,0.4,0.68,0.933,0.849,1.387c0.355,0.973,0.457,2.107,0.457,2.907c0,1.573-0.539,3.093-1.345,4.4l-0.655,0.92V36	c0,1.213-0.439,2.68-1.473,3.6l-4.812,4.32C30.559,44.947,29.169,46,26.999,46h-5.997C18.831,46,17.441,44.947,16.286,43.92z" clip-rule="evenodd"/><path fill="#fff" fill-rule="evenodd" d="M26.999,43h-5.997	c-1.791,0-2.945-0.84-4.048-1.827l-4.812-4.32c-0.764-0.68-1.14-1.827-1.14-2.853v-6c-1.173-1.427-2-3.2-2-5c0-1.493,0.387-4,2-4v-7	c0-5.36,5.604-10,12.997-10c7.393,0,13,4.64,13,10v7c1.613,0,2,2.507,2,4c0,1.8-0.827,3.573-2,5v6c0,1.027-0.376,2.173-1.14,2.853	l-4.812,4.32C29.945,42.16,28.79,43,26.999,43z" clip-rule="evenodd"/><path fill-rule="evenodd" d="M14.002,21c0-1.68,1.552-6.227,3-9	l4,2c0.711,0.347,2,7.08,2,8c0,2.28-4.761,9-6,9C15.874,31,14.002,22.707,14.002,21z" clip-rule="evenodd"/><path fill="#fff" fill-rule="evenodd" d="M16.002,21	c0-0.693,0.889-1,2-1c1.413,0,2.912,1.28,4,2h-5C16.307,22,16.002,21.467,16.002,21z" clip-rule="evenodd"/><path fill-rule="evenodd" d="M16.286,41.92l-4.812-4.32	c-1.035-0.92-1.472-2.387-1.472-3.6v-5.68L9.345,27.4c-0.805-1.307-1.343-2.827-1.343-4.4c0-0.8,0.101-1.933,0.456-2.907	c0.168-0.453,0.437-0.987,0.848-1.387l0.696-0.48V12c0-6.12,6.288-11,13.997-11c7.708,0,14,4.88,14,11v6.227l0.693,0.48	c0.411,0.4,0.68,0.933,0.849,1.387c0.355,0.973,0.457,2.107,0.457,2.907c0,1.573-0.539,3.093-1.345,4.4l-0.655,0.92V34	c0,1.213-0.439,2.68-1.473,3.6l-4.812,4.32C30.559,42.947,29.169,44,26.999,44h-5.997C18.831,44,17.441,42.947,16.286,41.92z M30.379,40.427l4.812-4.307c0.493-0.453,0.808-1.293,0.808-2.12v-6c0-0.227,0.08-0.453,0.228-0.64	c1.075-1.293,1.772-2.853,1.772-4.36c0-1.84-0.515-3-1-3c-0.552,0-1-0.453-1-1v-7c0-4.6-4.923-9-12-9c-7.079,0-11.997,4.4-11.997,9	v7c0,0.547-0.449,1-1,1c-0.469,0-1,1.213-1,3c0,1.507,0.696,3.067,1.771,4.36c0.148,0.187,0.229,0.413,0.229,0.64v6	c0,0.827,0.313,1.667,0.807,2.12l4.812,4.307C18.671,41.373,19.59,42,21.002,42h5.997C28.41,42,29.329,41.373,30.379,40.427z" clip-rule="evenodd"/><path fill-rule="evenodd" d="M33.999,21c0-1.68-1.552-6.227-3-9	l-4,2c-0.711,0.347-2,7.08-2,8c0,2.28,4.761,9,6,9C32.127,31,33.999,22.707,33.999,21z" clip-rule="evenodd"/><path fill="#fff" fill-rule="evenodd" d="M31.999,21	c0-0.693-0.889-1-2-1c-1.413,0-2.912,1.28-4,2h5C31.694,22,31.999,21.467,31.999,21z" clip-rule="evenodd"/></svg>